<svg xmlns="http://www.w3.org/2000/svg" version="1.0" width="894.000000pt" height="894.000000pt" viewBox="0 0 894.000000 894.000000" preserveAspectRatio="xMidYMid meet">

<g transform="translate(0.000000,894.000000) scale(0.100000,-0.100000)" fill="#00d8ff" stroke="none">
<path d="M4335 8695 c-296 -55 -519 -248 -614 -531 l-30 -88 -164 -42 c-491 -127 -944 -355 -1362 -684 -160 -126 -448 -413 -577 -575 -414 -521 -677 -1129 -772 -1785 -55 -380 -46 -823 25 -1205 171 -924 693 -1748 1460 -2307 524 -382 1131 -613 1794 -683 163 -17 538 -20 705 -5 1207 110 2285 805 2882 1860 241 426 391 889 454 1410 27 220 25 629 -5 855 -78 587 -260 1090 -568 1564 -147 226 -287 397 -497 606 -470 468 -1043 794 -1681 955 -71 18 -135 38 -141 44 -6 6 -18 38 -28 71 -71 234 -256 426 -488 506 -145 49 -259 59 -393 34z m-618 -1005 c79 -257 275 -449 534 -524 390 -112 802 94 949 475 16 43 30 88 30 99 0 11 6 23 13 25 35 14 436 -118 622 -204 400 -185 694 -389 1000 -696 545 -544 860 -1181 971 -1960 21 -151 30 -570 15 -732 -63 -680 -318 -1313 -738 -1838 -113 -142 -370 -400 -500 -503 -544 -430 -1102 -662 -1788 -744 -164 -19 -597 -16 -760 6 -626 84 -1144 291 -1630 651 -270 199 -570 513 -768 800 -640 933 -770 2117 -350 3185 316 801 960 1474 1751 1829 190 86 567 214 611 208 9 -1 24 -33 38 -77z" fill="#00d8ff"/>
<path d="M4265 5846 c-405 -68 -741 -283 -958 -611 -74 -113 -106 -177 -147 -290 -87 -248 -108 -509 -59 -755 52 -264 184 -505 384 -706 203 -205 421 -322 712 -386 129 -28 406 -30 528 -4 521 110 922 469 1074 962 50 162 64 275 57 459 -4 102 -13 191 -25 245 -123 538 -524 942 -1060 1066 -133 31 -382 41 -506 20z" fill="#00d8ff"/>
</g>
</svg>